<svg xmlns="http://www.w3.org/2000/svg" viewBox="0 0 32 32">
  <defs>
    <linearGradient id="faviconBg" x1="0%" y1="0%" x2="100%" y2="100%">
      <stop offset="0%" style="stop-color:#6366f1;stop-opacity:1" />
      <stop offset="100%" style="stop-color:#8b5cf6;stop-opacity:1" />
    </linearGradient>
  </defs>
  
  <!-- Background -->
  <rect width="32" height="32" fill="url(#faviconBg)"/>
  
  <!-- AR corners -->
  <g stroke="#fff" stroke-width="1.5" fill="none">
    <path d="M6 6 L6 10 M6 6 L10 6"/>
    <path d="M26 6 L26 10 M26 6 L22 6"/>
    <path d="M6 26 L6 22 M6 26 L10 26"/>
    <path d="M26 26 L26 22 M26 26 L22 26"/>
  </g>
  
  <!-- Location pin -->
  <g transform="translate(16, 13)">
    <path d="M0-5 C-2.8-5 -5-2.8 -5,0 C-5,2.8 0,9 0,9 C0,9 5,2.8 5,0 C5-2.8 2.8-5 0-5Z" 
          fill="#fff"/>
    <circle cx="0" cy="0" r="2" fill="#6366f1"/>
  </g>
</svg>
